<?xml version="1.0" encoding="UTF-8" standalone="no"?>
<!-- Created with Inkscape (http://www.inkscape.org/) -->

<svg
   xmlns:dc="http://purl.org/dc/elements/1.1/"
   xmlns:cc="http://creativecommons.org/ns#"
   xmlns:rdf="http://www.w3.org/1999/02/22-rdf-syntax-ns#"
   xmlns:svg="http://www.w3.org/2000/svg"
   xmlns="http://www.w3.org/2000/svg"
   xmlns:sodipodi="http://sodipodi.sourceforge.net/DTD/sodipodi-0.dtd"
   xmlns:inkscape="http://www.inkscape.org/namespaces/inkscape"
   width="225.77777mm"
   height="225.77777mm"
   viewBox="0 0 799.99998 799.99997"
   id="svg2"
   version="1.1"
   inkscape:version="0.91 r13725"
   sodipodi:docname="Осторожно, злая собака by Rones.svg">
  <defs
     id="defs4" />
  <sodipodi:namedview
     id="base"
     pagecolor="#ffffff"
     bordercolor="#666666"
     borderopacity="1.0"
     inkscape:pageopacity="0.0"
     inkscape:pageshadow="2"
     inkscape:zoom="0.7"
     inkscape:cx="-77.503572"
     inkscape:cy="292.74243"
     inkscape:document-units="px"
     inkscape:current-layer="layer1"
     showgrid="false"
     inkscape:window-width="1920"
     inkscape:window-height="1019"
     inkscape:window-x="1272"
     inkscape:window-y="-8"
     inkscape:window-maximized="1"
     fit-margin-top="0"
     fit-margin-left="0"
     fit-margin-right="0"
     fit-margin-bottom="0" />
  <metadata
     id="metadata7">
    <rdf:RDF>
      <cc:Work
         rdf:about="">
        <dc:format>image/svg+xml</dc:format>
        <dc:type
           rdf:resource="http://purl.org/dc/dcmitype/StillImage" />
        <dc:title></dc:title>
      </cc:Work>
    </rdf:RDF>
  </metadata>
  <g
     inkscape:label="Layer 1"
     inkscape:groupmode="layer"
     id="layer1"
     transform="translate(-85.803558,159.86993)">
    <circle
       style="opacity:1;fill:#000000;fill-opacity:1;fill-rule:nonzero;stroke:none;stroke-width:0.5;stroke-linecap:square;stroke-linejoin:round;stroke-miterlimit:4;stroke-dasharray:none;stroke-dashoffset:0;stroke-opacity:1"
       id="path4179"
       cx="485.80356"
       cy="240.13007"
       r="400"
       inkscape:export-xdpi="90"
       inkscape:export-ydpi="90" />
    <circle
       r="353.3085"
       cy="240.13007"
       cx="485.80356"
       id="circle4181"
       style="opacity:1;fill:#e47509;fill-opacity:1;fill-rule:nonzero;stroke:none;stroke-width:0.5;stroke-linecap:square;stroke-linejoin:round;stroke-miterlimit:4;stroke-dasharray:none;stroke-dashoffset:0;stroke-opacity:1"
       inkscape:export-xdpi="90"
       inkscape:export-ydpi="90" />
    <path
       style="opacity:1;fill:#000000;fill-opacity:1;fill-rule:nonzero;stroke:none;stroke-width:0.5;stroke-linecap:square;stroke-linejoin:round;stroke-miterlimit:4;stroke-dasharray:none;stroke-dashoffset:0;stroke-opacity:1"
       d="m 246.27977,289.8126 c -4.82611,-7.24382 -4.57543,-13.01038 2.53968,-17.14286 11.87574,-6.89746 25.21688,-14.27707 36.82541,-25.39682 11.66974,-11.17837 21.85707,-18.51682 27.9365,-30.4762 30.54115,-60.08019 66.85203,-103.88567 115.55555,-132.063482 5.53993,-37.775716 23.92406,-66.235467 47.61906,-96.507947 4.65881,-5.952053 9.52718,-8.98576 12.06348,1.9047644 6.67997,28.6829336 3.07666,57.9894226 4.44445,86.9841246 3.24252,0.525173 6.52928,1.116658 11.42857,4.126987 12.36578,-20.211645 26.65586,-40.420072 40.63491,-60.634916 3.46546,-5.011342 8.69639,-9.754631 9.52383,1.269831 1.86408,24.836462 -4.85522,47.820836 -8.88889,71.111111 -0.99108,5.7224 0.72894,6.339911 2.53968,7.619057 12.92522,9.13072 27.35136,17.52914 40,34.92064 3.57628,4.91728 3.09093,9.89429 1.90476,17.77778 -0.83714,5.5637 0.49659,10.76875 9.52381,15.87301 18.4537,10.43428 37.54654,19.55918 52.06348,35.55556 10.36048,11.41632 22.40292,17.19875 36.89582,24.46039 13.56832,6.79838 12.3053,22.41385 -5.78471,27.60309 -3.89422,1.11709 -7.49013,0.77291 -9.40827,6.31069 -4.60483,13.29443 -12.36263,18.68633 -21.70284,19.72105 -8.73588,0.96778 -13.4579,3.41006 -15.87301,9.52382 -5.20983,13.18853 -21.13231,19.04421 -42.53968,13.96825 l -61.58731,-14.60317 c -16.06299,-3.80874 -40.51803,-9.07769 -34.28571,26.03175 11.90583,67.07094 1.85161,115.87815 -14.60318,166.34919 -4.85107,14.87949 -16.50083,10.83376 -26.03173,6.34921 C 342.09455,436.34677 294.85721,362.72559 246.27977,289.8126 Z"
       id="path4183"
       inkscape:connector-curvature="0"
       sodipodi:nodetypes="sssscssccsssssssssssssssssss"
       inkscape:export-xdpi="90"
       inkscape:export-ydpi="90" />
  </g>
</svg>
